<?xml version="1.0" standalone="no"?><!DOCTYPE svg PUBLIC "-//W3C//DTD SVG 1.1//EN" "http://www.w3.org/Graphics/SVG/1.1/DTD/svg11.dtd"><svg t="1775714227240" class="icon" viewBox="0 0 1024 1024" version="1.1" xmlns="http://www.w3.org/2000/svg" p-id="2616" width="64" height="64" xmlns:xlink="http://www.w3.org/1999/xlink"><path d="M640 416h256c35.328 0 64 28.4672 64 64V896c0 35.328-28.4672 64-64 64H480c-35.328 0-64-28.4672-64-64v-256h128c53.2992 0 96-43.008 96-96v-128zM64 128c0-35.328 28.4672-64 64-64h416c35.328 0 64 28.4672 64 64v416c0 35.328-28.4672 64-64 64H128c-35.328 0-64-28.4672-64-64V128z m128 276.2752h46.6944v-24.7808H306.176v118.272h49.5104v-118.272h68.7616v20.6336h50.8928V243.3536H355.6352v-34.3552c0-10.0864 1.3824-18.7904 4.096-26.112a10.5472 10.5472 0 0 0 1.3824-4.1472c0-0.9216-3.1744-1.792-9.5744-2.7648H304.64v67.3792H192v160.9216z m46.6944-122.368H306.176v60.416H238.7456v-60.416z m185.7024 60.416H355.6352v-60.416h68.7616v60.4672z m203.8272 488.0384l19.2512-53.6064h100.352l19.3024 53.6064h54.9888L732.672 576H668.16l-92.1088 254.4128h52.224z m33.024-96.256l37.12-108.5952h1.3824l34.3552 108.5952h-72.8576zM896 320h-64a128 128 0 0 0-128-128V128a192 192 0 0 1 192 192z m-768 384h64a128 128 0 0 0 128 128v64a192 192 0 0 1-192-192z" fill="#707070" p-id="2617"></path></svg>